# xmcd
#
# Track frame offsets:
#	150
#	11252
#	25340
#	37130
#	51120
#	62407
#	73787
#	82662
#	97017
#	110910
#	122227
#	135337
#	145900
#	156907
#	169315
#	180492
#	188792
#	200867
#
# Disc length: 2873 seconds
#
# Revision: 0
# Processed by: cddbd v1.5.2PL0 Copyright (c) Steve Scherf et al.
# Submitted via: EasyCDDAExtractor 16.0.6.1
#
DISCID=000b3712
DTITLE=Φίλιππος Νικολάου - Τα πρώτα μου τραγούδια 1969-1974
DYEAR=1995
DGENRE=Λαϊκά
TTITLE0=Αγάπη Φθινοπωρινή (Φύλλα Φθινοπωρινά)(Α'εκτέλεση)(Φίλιππος Νικολάου)
TTITLE1=Η αξία της σιωπής (Φίλιππος Νικολάου)
TTITLE2=Μια καρδιά για σένανε (Φίλιππος Νικολάου)
TTITLE3=Το χάρτινο καράβι (Φίλιππος Νικολάου)
TTITLE4=Βότσαλο κοράλινο (Φίλιππος Νικολάου)
TTITLE5=Όσες φορές θυμηθώ (Φίλιππος Νικολάου)
TTITLE6=Οι ανοησίες (Φίλιππος Νικολάου and Λήδα)
TTITLE7=Όταν (Φίλιππος Νικολάου)
TTITLE8=Όπου ο εγωϊσμός (Φίλιππος Νικολάου)
TTITLE9=Με την πρώτη στάλα (Φίλιππος Νικολάου)
TTITLE10=Μακάρι (Φίλιππος Νικολάου)
TTITLE11=Ποιος δρόμος σ΄έφερε μπροστά μου (Φίλιππος Νικολάου)
TTITLE12=Ήλιε μου χαμένε μου (Φίλιππος Νικολάου)
TTITLE13=Λίγη τύχη να΄χα (Φίλιππος Νικολάου)
TTITLE14=Μεγιεμελέ (Φίλιππος Νικολάου)
TTITLE15=Λόγια λόγια λόγια (Φίλιππος Νικολάου)
TTITLE16=Καμάρι μου (Φίλιππος Νικολάου)
TTITLE17=Φύλλα Φθινοπωρινά (Β' εκτέλεση)(Φίλιππος Νικολάου)
EXTD=
EXTT0=
EXTT1=
EXTT2=
EXTT3=
EXTT4=
EXTT5=
EXTT6=
EXTT7=
EXTT8=
EXTT9=
EXTT10=
EXTT11=
EXTT12=
EXTT13=
EXTT14=
EXTT15=
EXTT16=
EXTT17=
PLAYORDER=
